<svg xmlns="http://www.w3.org/2000/svg" xmlns:xlink="http://www.w3.org/1999/xlink" width="500" zoomAndPan="magnify" viewBox="0 0 375 374.999991" height="500" preserveAspectRatio="xMidYMid meet" version="1.0"><path fill="#000000" d="M 30.320312 290.121094 C 54.691406 297.484375 79.582031 302.613281 104.648438 306.949219 C 126.386719 310.695312 150.011719 317.078125 172.019531 312.445312 C 182.4375 310.261719 191.5 303.324219 201.316406 299.421875 C 209.019531 296.328125 217.027344 294.023438 225.027344 291.695312 C 225.203125 291.835938 225.4375 291.976562 225.699219 292.109375 C 251.804688 304.292969 281.210938 304.632812 307.980469 304.632812 C 308.191406 304.632812 308.402344 304.609375 308.582031 304.574219 C 309.738281 304.859375 310.992188 304.515625 311.699219 303.109375 C 314.261719 297.898438 317.347656 292.972656 319.671875 287.652344 C 321.894531 282.558594 322.699219 276.792969 323.914062 271.332031 C 339.09375 269.585938 355.609375 267.207031 366.476562 257.316406 C 374.203125 250.25 374.960938 236.152344 364.164062 233.660156 C 364.800781 224.453125 363.984375 215.378906 355.078125 210.53125 C 354.996094 210.117188 354.828125 209.714844 354.605469 209.386719 C 355.101562 170.613281 341.585938 132.925781 315.46875 104.257812 C 301.492188 88.917969 286.066406 77.21875 267.292969 68.414062 C 248.203125 59.46875 227.351562 58.335938 206.644531 60.378906 C 168.285156 64.125 130.757812 80.679688 105.664062 110.496094 C 81.472656 139.273438 72.328125 177.761719 64.742188 213.652344 C 64.683594 213.898438 64.660156 214.136719 64.660156 214.382812 C 63.148438 215.851562 61.589844 217.445312 59.699219 218.179688 C 59.675781 218.203125 59.652344 218.203125 59.652344 218.203125 C 58.234375 218.34375 56.898438 219.3125 56.898438 221.167969 C 56.910156 227.230469 57.113281 233.292969 57.136719 239.34375 C 48.902344 245.121094 40.738281 251.03125 32.351562 256.597656 C 26.234375 260.671875 19.488281 263.722656 13.710938 268.285156 C 0.0195312 279.0625 22.453125 287.757812 30.320312 290.121094 " fill-opacity="1" fill-rule="nonzero"/><path fill="#ffcc02" d="M 170.390625 306.488281 C 152.730469 311.5 131.738281 305.214844 114.183594 302.308594 C 94.714844 299.09375 75.351562 295.488281 56.191406 290.761719 C 48.050781 288.765625 40.019531 286.460938 31.960938 284.167969 C 27.886719 283.019531 24.09375 281.613281 20.277344 279.734375 C 11.488281 275.386719 18.765625 271.9375 22.734375 269.5 C 35.71875 261.582031 48.109375 253.109375 60.597656 244.4375 C 62.359375 244.625 64.105469 244.828125 65.855469 245.097656 C 65.832031 245.289062 65.832031 245.464844 65.832031 245.652344 C 65.832031 248.0625 62.914062 250.367188 64.828125 252.828125 C 66.328125 254.742188 71.726562 254.269531 73.851562 254.625 C 81.898438 255.957031 89.621094 258.722656 97.527344 260.746094 C 109.160156 263.710938 120.785156 266.9375 132.480469 269.667969 C 132.894531 269.761719 133.285156 269.75 133.652344 269.667969 C 134.039062 269.679688 134.453125 269.621094 134.890625 269.417969 C 138.457031 267.730469 141.671875 265.414062 144.945312 263.238281 C 145.132812 263.109375 145.296875 262.964844 145.417969 262.800781 C 161.671875 262.882812 177.621094 266.324219 193.851562 266.40625 C 194.039062 266.710938 194.242188 267.042969 194.40625 267.375 C 194.535156 268.484375 195.292969 269.5 196.734375 269.5 C 214.914062 269.5 234.0625 271.25 252.113281 268.980469 C 252.445312 268.945312 252.726562 268.839844 253 268.699219 C 254.074219 268.652344 254.878906 267.929688 255.183594 266.960938 C 262.582031 267.292969 269.917969 267.953125 277.335938 267.730469 C 284.601562 267.480469 291.40625 264.46875 298.71875 264.609375 C 299.226562 264.609375 299.636719 264.492188 299.992188 264.265625 C 300.382812 264.574219 300.738281 264.84375 301.066406 265.046875 C 301.164062 265.09375 301.257812 265.128906 301.328125 265.152344 C 301.847656 265.625 302.59375 265.851562 303.5 265.542969 C 313.507812 262.246094 324.917969 262.363281 335.339844 260.648438 C 336.460938 260.839844 337.628906 260.367188 337.925781 258.925781 C 338.351562 256.820312 338.574219 254.707031 338.703125 252.578125 C 338.847656 252.496094 338.964844 252.390625 339.09375 252.296875 C 340.726562 250.746094 343.050781 249.800781 345.023438 248.808594 C 345.109375 248.761719 345.167969 248.703125 345.273438 248.667969 C 349.417969 248.832031 353.328125 250.367188 357.347656 248.453125 C 359.367188 247.507812 360.144531 245.121094 360.6875 243.136719 C 361.007812 241.882812 361.492188 240.691406 361.988281 239.507812 C 371.074219 240.453125 364.304688 251.277344 360.558594 254.054688 C 357.394531 256.394531 353.519531 257.957031 349.914062 259.375 C 342.414062 262.339844 334.25 263.332031 326.347656 264.429688 C 307.695312 266.984375 289.078125 269.890625 270.613281 273.4375 C 253.414062 276.734375 236.828125 281.804688 220.078125 286.765625 C 212.066406 289.140625 204.117188 291.671875 196.34375 294.765625 C 187.449219 298.324219 179.652344 303.855469 170.390625 306.488281 " fill-opacity="1" fill-rule="nonzero"/><path fill="#000000" d="M 65.996094 240.148438 C 66.242188 233.46875 66.679688 226.851562 67.285156 220.257812 C 65.984375 221.390625 64.625 222.433594 63.113281 223.246094 C 63.148438 228.777344 63.324219 234.273438 63.339844 239.804688 C 64.222656 239.898438 65.109375 240.027344 65.996094 240.148438 Z M 237.667969 88.28125 C 237.691406 88.246094 237.714844 88.195312 237.738281 88.160156 C 235.679688 88.503906 233.613281 88.882812 231.59375 89.296875 C 210.601562 93.597656 189.03125 101.386719 173.6875 116.972656 C 155.28125 135.597656 148.949219 160.769531 144.507812 185.867188 C 139.910156 211.878906 137.632812 238.195312 133.96875 264.324219 C 136.851562 262.777344 139.546875 260.898438 142.261719 259.066406 C 142.570312 231.722656 146.46875 204.125 154.820312 178.035156 C 161.894531 155.863281 170.945312 133.894531 188.003906 117.421875 C 201.871094 104.03125 218.941406 93.761719 237.59375 88.65625 C 237.605469 88.550781 237.605469 88.421875 237.667969 88.28125 Z M 250.542969 242.886719 C 250.199219 240.230469 249.832031 237.570312 249.457031 234.933594 C 233.285156 234.34375 217.160156 234.792969 201.046875 236.339844 C 200.679688 238.5625 200.40625 240.785156 200.183594 243.019531 C 216.945312 241.28125 233.746094 242.6875 250.542969 242.886719 Z M 251.003906 263.546875 C 251.78125 258.285156 251.617188 253.050781 251.121094 247.839844 C 233.898438 247.652344 216.699219 246.171875 199.519531 248.015625 C 199.449219 248.5 199.390625 248.949219 199.308594 249.421875 C 198.445312 253.960938 197.535156 258.429688 197.441406 263.023438 C 197.832031 263.523438 198.175781 264.019531 198.480469 264.574219 C 215.707031 264.679688 233.746094 266.121094 250.8125 264.160156 C 250.863281 263.996094 250.945312 263.804688 251.003906 263.640625 C 251.003906 263.605469 251.003906 263.570312 251.003906 263.546875 Z M 277.902344 82.878906 C 279.449219 83.257812 281.078125 83.601562 282.710938 83.953125 C 280.359375 82.347656 277.949219 80.824219 275.480469 79.359375 C 267.519531 77.03125 257.570312 76.617188 246.550781 76.910156 C 235.328125 77.230469 223.148438 77.890625 210.472656 80.351562 C 197.914062 82.796875 185.949219 86.140625 176.4375 91.542969 C 175.339844 92.261719 174.242188 92.984375 173.152344 93.703125 L 172.351562 94.234375 L 171.558594 94.875 C 171.074219 95.335938 170.554688 95.761719 170.035156 96.199219 C 169.539062 96.632812 169.03125 97.058594 168.535156 97.472656 C 168.179688 97.804688 167.671875 98.382812 167.257812 98.808594 C 166.375 99.742188 165.523438 100.652344 164.660156 101.550781 C 163.007812 103.371094 161.257812 105.011719 159.816406 106.785156 C 158.375 108.605469 157.015625 110.308594 155.707031 111.984375 C 152.976562 115.199219 150.933594 118.4375 148.984375 121.167969 C 148.015625 122.539062 147.128906 123.839844 146.300781 125.007812 C 145.523438 126.226562 144.800781 127.335938 144.164062 128.339844 C 141.566406 132.324219 140.042969 134.460938 139.839844 134.34375 C 139.617188 134.238281 140.761719 131.851562 142.984375 127.644531 C 143.5625 126.59375 144.1875 125.433594 144.886719 124.15625 C 145.605469 122.90625 146.445312 121.570312 147.332031 120.128906 C 149.160156 117.257812 151.085938 113.875 153.746094 110.496094 C 155.019531 108.769531 156.355469 106.976562 157.738281 105.074219 C 159.167969 103.230469 160.890625 101.492188 162.558594 99.578125 C 163.40625 98.644531 164.269531 97.675781 165.15625 96.707031 C 165.628906 96.222656 165.960938 95.785156 166.550781 95.203125 C 167.035156 94.78125 167.519531 94.34375 168.039062 93.882812 C 169.066406 93.042969 169.917969 92.050781 171.191406 91.269531 C 172.363281 90.441406 173.578125 89.628906 174.796875 88.777344 C 179.78125 85.832031 185.390625 83.503906 191.277344 81.601562 C 194.242188 80.632812 197.277344 79.804688 200.347656 79.003906 C 201.882812 78.636719 203.453125 78.269531 205.003906 77.867188 C 206.726562 77.503906 208.214844 77.253906 209.824219 76.921875 C 211.429688 76.640625 213.011719 76.332031 214.570312 76.035156 C 216.167969 75.789062 217.796875 75.597656 219.378906 75.398438 C 220.960938 75.199219 222.546875 74.996094 224.117188 74.808594 C 225.6875 74.640625 227.222656 74.558594 228.769531 74.429688 C 231.84375 74.179688 234.878906 73.957031 237.820312 73.921875 C 240.785156 73.828125 243.691406 73.707031 246.492188 73.707031 C 253.71875 73.625 260.582031 73.898438 266.785156 74.820312 C 264.082031 73.566406 261.304688 72.410156 258.433594 71.378906 C 248.816406 67.964844 238.847656 66.226562 228.792969 65.753906 C 228.214844 65.777344 227.660156 65.816406 227.082031 65.839844 C 223.503906 66.085938 219.605469 66.25 215.46875 66.558594 C 211.347656 66.855469 206.894531 67.328125 202.511719 68.332031 C 201.410156 68.53125 200.277344 68.886719 199.109375 69.242188 L 197.464844 69.738281 L 195.777344 70.410156 C 193.484375 71.296875 191.15625 72.230469 188.78125 73.152344 C 186.421875 74.085938 184 75.03125 181.554688 76 C 179.121094 77.054688 176.652344 78.117188 174.15625 79.191406 C 164.082031 83.210938 155.03125 87.996094 147.414062 93.230469 C 146.445312 93.882812 145.488281 94.484375 144.554688 95.144531 C 143.644531 95.84375 142.734375 96.527344 141.847656 97.203125 C 140.125 98.5625 138.246094 99.847656 136.792969 101.160156 C 136 101.824219 135.222656 102.460938 134.476562 103.097656 C 133.757812 103.796875 133.035156 104.457031 132.351562 105.121094 C 130.933594 106.394531 129.742188 107.824219 128.511719 109.078125 C 123.75 114.265625 120.21875 118.839844 117.609375 121.875 C 115.03125 124.925781 113.484375 126.507812 113.296875 126.367188 C 113.117188 126.226562 114.289062 124.347656 116.53125 121.050781 C 118.800781 117.777344 122.039062 112.964844 126.65625 107.449219 C 127.863281 106.113281 129.042969 104.601562 130.460938 103.230469 C 131.144531 102.519531 131.867188 101.800781 132.5625 101.054688 C 133.34375 100.382812 134.136719 99.683594 134.914062 98.960938 C 136.53125 97.4375 138.222656 96.234375 139.980469 94.792969 C 140.84375 94.09375 141.730469 93.398438 142.640625 92.675781 C 143.5625 91.992188 144.554688 91.328125 145.546875 90.632812 C 149.410156 87.808594 153.746094 85.253906 158.269531 82.738281 C 160.609375 81.566406 162.972656 80.386719 165.378906 79.191406 C 167.8125 78.140625 170.285156 77.066406 172.800781 76 C 175.292969 74.925781 177.761719 73.863281 180.195312 72.824219 C 182.664062 71.816406 185.132812 70.90625 187.542969 69.984375 C 188.0625 69.773438 188.558594 69.585938 189.066406 69.40625 C 155.03125 76.78125 122.378906 94.566406 103.054688 124.347656 C 89.160156 145.785156 81.304688 169.9375 75.351562 194.542969 C 72.964844 204.410156 72.574219 215.402344 71.785156 225.492188 C 71.277344 231.945312 69.707031 239.011719 70.664062 245.453125 C 70.734375 245.9375 70.839844 246.398438 70.957031 246.789062 C 72.164062 250.523438 75.636719 249.871094 79.921875 250.890625 C 86.292969 252.355469 92.492188 254.410156 98.835938 255.980469 C 108.9375 258.476562 118.988281 261.277344 129.078125 263.746094 C 133.507812 232.570312 135.46875 200.851562 142.675781 170.140625 C 148.59375 144.898438 157.523438 122.738281 178.421875 106.359375 C 196.390625 92.261719 219.320312 85.832031 241.566406 82.679688 C 253.613281 80.964844 265.957031 80.042969 277.902344 82.878906 Z M 307.140625 298.453125 C 308.132812 296.621094 309.183594 294.800781 310.210938 292.996094 C 307.046875 294.222656 303.183594 294.765625 298.503906 294.519531 C 278.753906 293.492188 259.117188 292.6875 240.003906 287.238281 C 238.433594 287.699219 236.863281 288.125 235.304688 288.621094 C 234.855469 288.765625 234.382812 288.894531 233.921875 289.035156 C 257.242188 298.3125 282.507812 298.453125 307.140625 298.453125 Z M 314.890625 282.523438 C 315.835938 279.0625 316.601562 275.574219 317.382812 272.089844 C 314.808594 272.386719 312.289062 272.714844 309.902344 273.082031 C 289.667969 276.179688 269.46875 279.453125 249.667969 284.570312 C 261.613281 287.203125 273.816406 288.351562 286.066406 288.953125 C 291.769531 289.226562 297.867188 290.121094 303.574219 289.589844 C 309.433594 289.035156 312.785156 286.351562 314.890625 282.523438 Z M 332.195312 239.117188 C 331.097656 238.789062 329.84375 238.753906 328.839844 238.859375 C 328.628906 238.859375 328.449219 238.859375 328.261719 238.835938 C 328.203125 238.835938 328.132812 238.859375 328.074219 238.859375 C 322.144531 238.726562 316.660156 240.382812 310.882812 241.46875 C 307.683594 242.085938 304.199219 242.546875 301.101562 243.832031 C 306.394531 245.453125 312.230469 243.964844 317.582031 242.996094 C 322.589844 242.085938 327.457031 240.9375 332.195312 239.117188 Z M 333.425781 255.980469 C 334.050781 251.941406 333.96875 247.839844 333.886719 243.761719 C 327.386719 246.183594 320.714844 247.53125 313.789062 248.535156 C 308.6875 249.304688 304.257812 249.835938 299.636719 248.476562 C 299.828125 251.714844 299.496094 254.988281 299.414062 258.203125 C 300.714844 258.804688 301.871094 259.691406 303.148438 260.496094 C 312.808594 257.542969 323.476562 257.53125 333.425781 255.980469 Z M 348.640625 212.410156 C 348.484375 212.042969 348.402344 211.605469 348.402344 211.132812 C 349.335938 172.964844 336.152344 133.457031 308.828125 106.253906 C 304.953125 102.414062 301.042969 98.691406 296.980469 95.144531 C 295.21875 94.046875 293.320312 93.125 291.132812 92.511719 C 284.480469 90.609375 277.640625 89.332031 270.695312 89.308594 C 259.34375 89.273438 247.933594 90.597656 237.050781 94.011719 C 217.335938 100.167969 198.988281 111.242188 185.628906 127.207031 C 156.828125 161.667969 147.828125 214.042969 147.234375 257.921875 C 162.414062 258.203125 177.371094 261.171875 192.550781 261.417969 C 192.765625 257.566406 193.460938 253.796875 194.179688 249.980469 C 195.175781 244.730469 195.398438 239.414062 196.402344 234.179688 C 196.507812 233.660156 196.722656 233.292969 196.980469 232.996094 C 197.359375 232.277344 198.03125 231.683594 199.046875 231.578125 C 216.261719 229.828125 233.53125 229.355469 250.8125 230.03125 C 251.085938 230.054688 251.335938 230.089844 251.558594 230.171875 C 252.714844 230.277344 253.863281 231.058594 254.050781 232.5 C 255.351562 242.390625 257.015625 252.117188 256.070312 262.078125 C 264.742188 262.578125 274.015625 264.019531 282.519531 262.164062 C 286.539062 261.277344 290.4375 260.261719 294.476562 259.859375 C 294.476562 259.726562 294.488281 259.609375 294.535156 259.480469 C 294.488281 259.339844 294.429688 259.21875 294.453125 259.03125 C 294.488281 254.222656 295.457031 249.175781 294.015625 244.496094 C 293.625 243.265625 294.179688 242.332031 295.03125 241.835938 C 295.195312 241.613281 295.398438 241.386719 295.667969 241.175781 C 300.132812 237.984375 305.886719 237.511719 311.121094 236.402344 C 316.769531 235.183594 322.238281 233.777344 328.074219 233.882812 C 328.238281 233.90625 328.402344 233.929688 328.546875 233.941406 C 328.652344 233.929688 328.734375 233.90625 328.839844 233.882812 C 332.289062 233.574219 336.898438 234.816406 338.457031 238.207031 C 338.714844 238.789062 338.8125 239.425781 338.679688 240.003906 C 338.714844 240.171875 338.789062 240.3125 338.789062 240.476562 C 338.8125 242.476562 338.824219 244.460938 338.847656 246.457031 C 339.792969 245.902344 340.761719 245.429688 341.730469 244.933594 C 341.257812 238.089844 339.625 231.273438 342.308594 224.652344 C 344.054688 220.339844 346.078125 216.226562 348.640625 212.410156 Z M 357.785156 236.339844 C 358.480469 228.859375 359.507812 220.199219 352.078125 215.933594 C 349.621094 219.558594 347.433594 223.792969 346.429688 227.738281 C 345.046875 233.140625 346.125 238.515625 346.621094 243.941406 C 349.429688 244.484375 353.046875 245.488281 354.855469 244.1875 C 356.152344 243.265625 356.070312 240.667969 356.589844 239.285156 C 356.921875 238.339844 357.371094 237.453125 357.808594 236.542969 C 357.808594 236.484375 357.785156 236.402344 357.785156 236.339844 Z M 364.164062 233.660156 C 374.960938 236.152344 374.203125 250.25 366.476562 257.316406 C 355.621094 267.207031 339.09375 269.585938 323.914062 271.332031 C 322.699219 276.792969 321.894531 282.558594 319.671875 287.652344 C 317.347656 292.972656 314.261719 297.898438 311.699219 303.109375 C 310.992188 304.515625 309.738281 304.859375 308.582031 304.574219 C 308.402344 304.609375 308.191406 304.632812 307.992188 304.632812 C 281.210938 304.632812 251.804688 304.292969 225.699219 292.109375 C 225.4375 291.976562 225.203125 291.835938 225.027344 291.695312 C 217.027344 294.023438 209.019531 296.328125 201.316406 299.421875 C 191.5 303.324219 182.4375 310.261719 172.019531 312.445312 C 150.011719 317.078125 126.386719 310.695312 104.648438 306.949219 C 79.582031 302.613281 54.691406 297.484375 30.320312 290.121094 C 22.453125 287.757812 0.0195312 279.0625 13.710938 268.285156 C 19.488281 263.722656 26.234375 260.671875 32.351562 256.597656 C 40.738281 251.03125 48.902344 245.121094 57.136719 239.34375 C 57.125 233.292969 56.910156 227.230469 56.898438 221.167969 C 56.898438 219.3125 58.234375 218.34375 59.652344 218.203125 C 59.652344 218.203125 59.675781 218.203125 59.699219 218.179688 C 61.589844 217.445312 63.148438 215.851562 64.660156 214.382812 C 64.660156 214.136719 64.683594 213.898438 64.742188 213.652344 C 72.328125 177.761719 81.472656 139.273438 105.652344 110.496094 C 130.757812 80.679688 168.285156 64.125 206.644531 60.378906 C 227.351562 58.335938 248.203125 59.46875 267.292969 68.414062 C 286.066406 77.21875 301.492188 88.917969 315.46875 104.257812 C 341.585938 132.925781 355.101562 170.613281 354.605469 209.386719 C 354.828125 209.714844 354.996094 210.117188 355.078125 210.53125 C 363.984375 215.378906 364.800781 224.441406 364.164062 233.660156 Z M 145.417969 262.800781 C 145.296875 262.964844 145.132812 263.109375 144.945312 263.238281 C 141.671875 265.414062 138.457031 267.730469 134.890625 269.417969 C 134.453125 269.621094 134.039062 269.679688 133.652344 269.667969 C 133.285156 269.75 132.894531 269.761719 132.480469 269.667969 C 120.785156 266.9375 109.160156 263.710938 97.527344 260.746094 C 89.621094 258.722656 81.898438 255.957031 73.851562 254.625 C 71.726562 254.269531 66.328125 254.742188 64.828125 252.828125 C 62.914062 250.367188 65.832031 248.0625 65.832031 245.652344 C 65.832031 245.464844 65.832031 245.289062 65.855469 245.097656 C 64.105469 244.828125 62.359375 244.625 60.597656 244.4375 C 48.109375 253.109375 35.71875 261.582031 22.734375 269.5 C 18.765625 271.9375 11.488281 275.386719 20.277344 279.734375 C 24.09375 281.613281 27.886719 283.019531 31.960938 284.167969 C 40.019531 286.460938 48.050781 288.765625 56.191406 290.761719 C 75.351562 295.488281 94.714844 299.09375 114.183594 302.308594 C 131.738281 305.214844 152.730469 311.5 170.390625 306.488281 C 179.652344 303.855469 187.449219 298.324219 196.34375 294.765625 C 204.117188 291.671875 212.066406 289.140625 220.078125 286.765625 C 236.828125 281.804688 253.414062 276.734375 270.613281 273.4375 C 289.078125 269.890625 307.695312 266.984375 326.347656 264.429688 C 334.25 263.332031 342.414062 262.339844 349.914062 259.375 C 353.519531 257.957031 357.394531 256.394531 360.558594 254.054688 C 364.304688 251.277344 371.074219 240.453125 361.988281 239.507812 C 361.492188 240.691406 361.007812 241.882812 360.6875 243.136719 C 360.144531 245.121094 359.367188 247.507812 357.347656 248.453125 C 353.328125 250.367188 349.417969 248.832031 345.273438 248.667969 C 345.167969 248.703125 345.109375 248.761719 345.023438 248.808594 C 343.050781 249.800781 340.726562 250.746094 339.09375 252.296875 C 338.964844 252.390625 338.847656 252.496094 338.703125 252.578125 C 338.574219 254.707031 338.351562 256.820312 337.925781 258.925781 C 337.628906 260.367188 336.460938 260.839844 335.339844 260.648438 C 324.917969 262.363281 313.507812 262.246094 303.5 265.542969 C 302.59375 265.851562 301.847656 265.625 301.328125 265.152344 C 301.257812 265.128906 301.164062 265.09375 301.066406 265.046875 C 300.738281 264.84375 300.382812 264.574219 299.992188 264.265625 C 299.636719 264.492188 299.226562 264.609375 298.71875 264.609375 C 291.40625 264.46875 284.601562 267.480469 277.335938 267.730469 C 269.917969 267.953125 262.582031 267.292969 255.183594 266.960938 C 254.878906 267.929688 254.074219 268.652344 253 268.699219 C 252.726562 268.839844 252.445312 268.945312 252.113281 268.980469 C 234.0625 271.25 214.914062 269.5 196.734375 269.5 C 195.292969 269.5 194.535156 268.484375 194.40625 267.375 C 194.242188 267.042969 194.039062 266.710938 193.851562 266.40625 C 177.621094 266.324219 161.671875 262.882812 145.417969 262.800781 " fill-opacity="1" fill-rule="nonzero"/><path fill="#ffc715" d="M 75.351562 194.542969 C 81.304688 169.9375 89.160156 145.785156 103.054688 124.347656 C 122.378906 94.566406 155.03125 76.78125 189.066406 69.40625 C 188.558594 69.585938 188.0625 69.773438 187.542969 69.984375 C 185.132812 70.90625 182.664062 71.816406 180.195312 72.824219 C 177.761719 73.863281 175.292969 74.925781 172.800781 76 C 170.285156 77.066406 167.8125 78.140625 165.378906 79.191406 C 162.972656 80.386719 160.609375 81.566406 158.269531 82.738281 C 153.746094 85.253906 149.410156 87.808594 145.546875 90.632812 C 144.554688 91.328125 143.5625 91.992188 142.640625 92.675781 C 141.730469 93.398438 140.84375 94.09375 139.980469 94.792969 C 138.222656 96.234375 136.53125 97.4375 134.914062 98.960938 C 134.136719 99.683594 133.34375 100.382812 132.5625 101.054688 C 131.867188 101.800781 131.144531 102.519531 130.460938 103.230469 C 129.042969 104.601562 127.863281 106.113281 126.65625 107.449219 C 122.039062 112.964844 118.800781 117.777344 116.53125 121.050781 C 114.289062 124.347656 113.117188 126.226562 113.296875 126.367188 C 113.484375 126.507812 115.03125 124.925781 117.609375 121.875 C 120.21875 118.839844 123.75 114.265625 128.511719 109.078125 C 129.742188 107.824219 130.933594 106.394531 132.351562 105.121094 C 133.035156 104.457031 133.757812 103.796875 134.476562 103.097656 C 135.222656 102.460938 136 101.824219 136.792969 101.160156 C 138.246094 99.847656 140.125 98.5625 141.847656 97.203125 C 142.734375 96.527344 143.644531 95.84375 144.554688 95.144531 C 145.488281 94.484375 146.445312 93.882812 147.414062 93.230469 C 155.03125 87.996094 164.082031 83.210938 174.15625 79.191406 C 176.652344 78.117188 179.121094 77.054688 181.554688 76 C 184 75.03125 186.421875 74.085938 188.78125 73.152344 C 191.15625 72.230469 193.484375 71.296875 195.777344 70.410156 L 197.464844 69.738281 L 199.109375 69.242188 C 200.277344 68.886719 201.410156 68.53125 202.511719 68.332031 C 206.894531 67.328125 211.347656 66.855469 215.46875 66.558594 C 219.605469 66.25 223.503906 66.085938 227.082031 65.839844 C 227.660156 65.816406 228.214844 65.777344 228.792969 65.753906 C 238.847656 66.226562 248.816406 67.964844 258.433594 71.378906 C 261.304688 72.410156 264.082031 73.566406 266.785156 74.820312 C 260.582031 73.898438 253.71875 73.625 246.492188 73.707031 C 243.691406 73.707031 240.785156 73.828125 237.820312 73.921875 C 234.878906 73.957031 231.84375 74.179688 228.769531 74.429688 C 227.222656 74.558594 225.6875 74.640625 224.117188 74.808594 C 222.546875 74.996094 220.960938 75.199219 219.378906 75.398438 C 217.796875 75.597656 216.167969 75.789062 214.570312 76.035156 C 213.011719 76.332031 211.429688 76.640625 209.824219 76.921875 C 208.214844 77.253906 206.726562 77.503906 205.003906 77.867188 C 203.453125 78.269531 201.882812 78.636719 200.347656 79.003906 C 197.277344 79.804688 194.242188 80.632812 191.277344 81.601562 C 185.390625 83.503906 179.78125 85.832031 174.796875 88.777344 C 173.578125 89.628906 172.363281 90.441406 171.191406 91.269531 C 169.917969 92.050781 169.066406 93.042969 168.039062 93.882812 C 167.519531 94.34375 167.035156 94.78125 166.550781 95.203125 C 165.960938 95.785156 165.628906 96.222656 165.15625 96.707031 C 164.269531 97.675781 163.40625 98.644531 162.558594 99.578125 C 160.890625 101.492188 159.167969 103.230469 157.738281 105.074219 C 156.355469 106.976562 155.019531 108.769531 153.746094 110.496094 C 151.085938 113.875 149.160156 117.257812 147.332031 120.128906 C 146.445312 121.570312 145.605469 122.90625 144.886719 124.15625 C 144.1875 125.433594 143.5625 126.59375 142.984375 127.644531 C 140.761719 131.851562 139.617188 134.238281 139.839844 134.34375 C 140.042969 134.460938 141.566406 132.324219 144.164062 128.339844 C 144.800781 127.335938 145.523438 126.226562 146.300781 125.007812 C 147.128906 123.839844 148.015625 122.539062 148.984375 121.167969 C 150.933594 118.4375 152.976562 115.199219 155.707031 111.984375 C 157.015625 110.308594 158.375 108.605469 159.816406 106.785156 C 161.257812 105.011719 163.007812 103.371094 164.660156 101.550781 C 165.523438 100.652344 166.375 99.742188 167.257812 98.808594 C 167.671875 98.382812 168.179688 97.804688 168.535156 97.472656 C 169.03125 97.058594 169.539062 96.632812 170.035156 96.199219 C 170.554688 95.761719 171.074219 95.335938 171.558594 94.875 L 172.351562 94.234375 L 173.152344 93.703125 C 174.242188 92.984375 175.339844 92.261719 176.4375 91.542969 C 185.949219 86.140625 197.914062 82.796875 210.472656 80.351562 C 223.148438 77.890625 235.328125 77.230469 246.550781 76.910156 C 257.570312 76.617188 267.519531 77.03125 275.480469 79.359375 C 277.949219 80.824219 280.359375 82.347656 282.710938 83.953125 C 281.078125 83.601562 279.449219 83.257812 277.902344 82.878906 C 265.957031 80.042969 253.613281 80.964844 241.566406 82.679688 C 219.320312 85.832031 196.390625 92.261719 178.421875 106.359375 C 157.523438 122.738281 148.59375 144.898438 142.675781 170.140625 C 135.46875 200.851562 133.507812 232.570312 129.078125 263.746094 C 118.988281 261.277344 108.9375 258.476562 98.835938 255.980469 C 92.492188 254.410156 86.292969 252.355469 79.921875 250.890625 C 75.636719 249.871094 72.164062 250.523438 70.957031 246.789062 C 70.839844 246.398438 70.734375 245.9375 70.664062 245.453125 C 69.707031 239.011719 71.277344 231.945312 71.785156 225.492188 C 72.574219 215.402344 72.964844 204.410156 75.351562 194.542969 " fill-opacity="1" fill-rule="nonzero"/><path fill="#9e780d" d="M 352.078125 215.933594 C 359.507812 220.199219 358.480469 228.859375 357.785156 236.339844 C 357.785156 236.402344 357.808594 236.484375 357.808594 236.542969 C 357.371094 237.453125 356.921875 238.339844 356.589844 239.285156 C 356.070312 240.667969 356.152344 243.265625 354.855469 244.1875 C 353.046875 245.488281 349.429688 244.484375 346.621094 243.941406 C 346.125 238.515625 345.046875 233.140625 346.429688 227.738281 C 347.433594 223.792969 349.621094 219.558594 352.078125 215.933594 " fill-opacity="1" fill-rule="nonzero"/><path fill="#ffcc02" d="M 348.402344 211.132812 C 348.402344 211.605469 348.484375 212.042969 348.640625 212.410156 C 346.078125 216.226562 344.054688 220.339844 342.308594 224.652344 C 339.625 231.273438 341.257812 238.089844 341.730469 244.933594 C 340.761719 245.429688 339.792969 245.902344 338.847656 246.457031 C 338.824219 244.460938 338.8125 242.476562 338.789062 240.476562 C 338.789062 240.3125 338.714844 240.171875 338.679688 240.003906 C 338.8125 239.425781 338.714844 238.789062 338.457031 238.207031 C 336.898438 234.816406 332.289062 233.574219 328.839844 233.882812 C 328.734375 233.90625 328.652344 233.929688 328.546875 233.941406 C 328.402344 233.929688 328.238281 233.90625 328.074219 233.882812 C 322.238281 233.777344 316.769531 235.183594 311.121094 236.402344 C 305.886719 237.511719 300.132812 237.984375 295.667969 241.175781 C 295.398438 241.386719 295.195312 241.613281 295.03125 241.835938 C 294.179688 242.332031 293.625 243.265625 294.015625 244.496094 C 295.457031 249.175781 294.488281 254.222656 294.453125 259.03125 C 294.429688 259.21875 294.488281 259.339844 294.535156 259.480469 C 294.488281 259.609375 294.476562 259.726562 294.476562 259.859375 C 290.4375 260.261719 286.539062 261.277344 282.519531 262.164062 C 274.015625 264.019531 264.742188 262.578125 256.070312 262.078125 C 257.015625 252.117188 255.351562 242.390625 254.050781 232.5 C 253.863281 231.058594 252.714844 230.277344 251.558594 230.171875 C 251.335938 230.089844 251.085938 230.054688 250.8125 230.03125 C 233.53125 229.355469 216.261719 229.828125 199.046875 231.578125 C 198.03125 231.683594 197.359375 232.277344 196.980469 232.996094 C 196.722656 233.292969 196.507812 233.660156 196.402344 234.179688 C 195.398438 239.414062 195.175781 244.730469 194.179688 249.980469 C 193.460938 253.796875 192.765625 257.566406 192.550781 261.417969 C 177.371094 261.171875 162.414062 258.203125 147.234375 257.921875 C 147.828125 214.042969 156.828125 161.667969 185.628906 127.207031 C 198.988281 111.242188 217.335938 100.167969 237.050781 94.011719 C 247.933594 90.597656 259.34375 89.273438 270.695312 89.308594 C 277.640625 89.332031 284.480469 90.609375 291.132812 92.511719 C 293.320312 93.125 295.21875 94.046875 296.980469 95.144531 C 301.042969 98.691406 304.953125 102.414062 308.828125 106.253906 C 336.152344 133.457031 349.335938 172.964844 348.402344 211.132812 " fill-opacity="1" fill-rule="nonzero"/><path fill="#9e780d" d="M 333.886719 243.761719 C 333.96875 247.839844 334.050781 251.941406 333.425781 255.980469 C 323.476562 257.53125 312.808594 257.542969 303.148438 260.496094 C 301.871094 259.691406 300.714844 258.804688 299.414062 258.203125 C 299.496094 254.988281 299.828125 251.714844 299.636719 248.476562 C 304.257812 249.835938 308.6875 249.304688 313.789062 248.535156 C 320.714844 247.53125 327.386719 246.183594 333.886719 243.761719 " fill-opacity="1" fill-rule="nonzero"/><path fill="#ffc715" d="M 328.839844 238.859375 C 329.84375 238.753906 331.097656 238.789062 332.195312 239.117188 C 327.457031 240.9375 322.589844 242.085938 317.582031 242.996094 C 312.230469 243.964844 306.394531 245.453125 301.101562 243.832031 C 304.199219 242.546875 307.683594 242.085938 310.882812 241.46875 C 316.660156 240.382812 322.144531 238.726562 328.074219 238.859375 C 328.132812 238.859375 328.203125 238.835938 328.261719 238.835938 C 328.449219 238.859375 328.628906 238.859375 328.839844 238.859375 " fill-opacity="1" fill-rule="nonzero"/><path fill="#333333" d="M 317.382812 272.089844 C 316.601562 275.574219 315.835938 279.0625 314.890625 282.523438 C 312.785156 286.351562 309.433594 289.035156 303.574219 289.589844 C 297.867188 290.121094 291.769531 289.226562 286.066406 288.953125 C 273.816406 288.351562 261.613281 287.203125 249.667969 284.570312 C 269.46875 279.453125 289.667969 276.179688 309.902344 273.082031 C 312.289062 272.714844 314.808594 272.386719 317.382812 272.089844 " fill-opacity="1" fill-rule="nonzero"/><path fill="#666666" d="M 310.210938 292.996094 C 309.183594 294.800781 308.132812 296.621094 307.140625 298.453125 C 282.507812 298.453125 257.242188 298.3125 233.921875 289.035156 C 234.382812 288.894531 234.855469 288.765625 235.304688 288.621094 C 236.863281 288.125 238.433594 287.699219 240.003906 287.238281 C 259.117188 292.6875 278.753906 293.492188 298.503906 294.519531 C 303.183594 294.765625 307.046875 294.222656 310.210938 292.996094 " fill-opacity="1" fill-rule="nonzero"/><path fill="#9e780d" d="M 251.121094 247.839844 C 251.617188 253.050781 251.78125 258.285156 251.003906 263.546875 C 251.003906 263.570312 251.003906 263.605469 251.003906 263.640625 C 250.945312 263.804688 250.863281 263.996094 250.8125 264.160156 C 233.746094 266.121094 215.707031 264.679688 198.480469 264.574219 C 198.175781 264.019531 197.832031 263.523438 197.441406 263.023438 C 197.535156 258.429688 198.445312 253.960938 199.308594 249.421875 C 199.390625 248.949219 199.449219 248.5 199.519531 248.015625 C 216.699219 246.171875 233.898438 247.652344 251.121094 247.839844 " fill-opacity="1" fill-rule="nonzero"/><path fill="#ffc715" d="M 249.457031 234.933594 C 249.832031 237.570312 250.199219 240.230469 250.542969 242.886719 C 233.746094 242.6875 216.945312 241.28125 200.183594 243.019531 C 200.40625 240.785156 200.679688 238.5625 201.046875 236.339844 C 217.160156 234.792969 233.285156 234.34375 249.457031 234.933594 " fill-opacity="1" fill-rule="nonzero"/><path fill="#9e780d" d="M 237.738281 88.160156 C 237.714844 88.195312 237.691406 88.246094 237.667969 88.28125 C 237.605469 88.421875 237.605469 88.550781 237.59375 88.65625 C 218.941406 93.761719 201.871094 104.03125 188.003906 117.421875 C 170.945312 133.894531 161.894531 155.863281 154.820312 178.035156 C 146.46875 204.125 142.570312 231.722656 142.261719 259.066406 C 139.546875 260.898438 136.851562 262.777344 133.96875 264.324219 C 137.632812 238.195312 139.910156 211.878906 144.507812 185.867188 C 148.949219 160.769531 155.28125 135.597656 173.6875 116.972656 C 189.03125 101.386719 210.601562 93.597656 231.59375 89.296875 C 233.613281 88.882812 235.679688 88.503906 237.738281 88.160156 " fill-opacity="1" fill-rule="nonzero"/><path fill="#ffcc02" d="M 67.285156 220.257812 C 66.679688 226.851562 66.242188 233.46875 65.996094 240.148438 C 65.109375 240.027344 64.222656 239.898438 63.339844 239.804688 C 63.324219 234.273438 63.148438 228.777344 63.113281 223.246094 C 64.625 222.433594 65.984375 221.390625 67.285156 220.257812 " fill-opacity="1" fill-rule="nonzero"/></svg>